#N canvas -8 0 958 966 12;
#X obj 248 143 gemhead;
#X obj 241 302 cube;
#N canvas 0 0 450 300 gemwin 0;
#X obj 132 136 gemwin;
#X obj 67 89 outlet;
#X obj 67 10 inlet;
#X obj 67 41 route create;
#X msg 67 70 set destroy;
#X msg 142 68 set create;
#X msg 198 112 destroy;
#X msg 132 112 create \, 1;
#X connect 2 0 3 0;
#X connect 3 0 4 0;
#X connect 3 0 7 0;
#X connect 3 1 5 0;
#X connect 3 1 6 0;
#X connect 4 0 1 0;
#X connect 5 0 1 0;
#X connect 6 0 0 0;
#X connect 7 0 0 0;
#X restore 133 203 pd gemwin;
#X msg 140 181 destroy;
#X text 121 163 Create window:;
#X msg 144 269 draw line;
#X obj 271 197 rotateXYZ;
#X floatatom 327 134 5 0 0 0 - - -;
#X floatatom 380 134 5 0 0 0 - - -;
#X obj 355 197 translateXYZ;
#X connect 0 0 6 0;
#X connect 0 0 9 0;
#X connect 2 0 3 0;
#X connect 3 0 2 0;
#X connect 5 0 1 0;
#X connect 6 0 1 0;
#X connect 7 0 6 1;
#X connect 8 0 9 1;
#X connect 9 0 1 0;
