#N canvas 0 50 450 300 12;
#X obj 169 362 print;
#X msg 165 122 hello world!;
#X obj 162 36 bng 15 250 50 0 empty empty empty 17 7 0 10 -262144 -1
-1;
#X obj 115 65 tgl 15 0 empty empty empty 17 7 0 10 -262144 -1 -1 1
1;
#X msg 58 122 hello mars!;
#X obj 187 65 tgl 15 0 empty empty empty 17 7 0 10 -262144 -1 -1 0
1;
#X connect 1 0 0 0;
#X connect 2 0 3 0;
#X connect 2 0 5 0;
#X connect 3 0 4 0;
#X connect 4 0 0 0;
#X connect 5 0 1 0;
