#N canvas -8 0 958 966 12;
#X obj 209 268 *~ 0.3;
#X obj 197 366 dac~;
#X floatatom 228 170 5 0 0 0 - - -;
#X obj 229 216 osc~ 300;
#X obj 228 146 mtof;
#X floatatom 228 123 5 0 0 0 - - -;
#X obj 309 272 tgl 15 0 empty empty empty 17 7 0 10 -262144 -1 -1 0
1;
#X obj 99 220 tabplay~;
#X connect 0 0 1 0;
#X connect 0 0 1 1;
#X connect 2 0 3 0;
#X connect 3 0 0 0;
#X connect 4 0 2 0;
#X connect 5 0 4 0;
#X connect 6 0 1 1;
#X connect 6 0 1 0;
