#N canvas 23 47 939 844 12;
#N canvas 0 0 450 300 gemwin 0;
#X obj 132 136 gemwin;
#X obj 67 89 outlet;
#X obj 67 10 inlet;
#X obj 67 41 route create;
#X msg 67 70 set destroy;
#X msg 142 68 set create;
#X msg 198 112 destroy;
#X msg 132 112 create \, 1;
#X connect 2 0 3 0;
#X connect 3 0 4 0;
#X connect 3 0 7 0;
#X connect 3 1 5 0;
#X connect 3 1 6 0;
#X connect 4 0 1 0;
#X connect 5 0 1 0;
#X connect 6 0 0 0;
#X connect 7 0 0 0;
#X restore 7 30 pd gemwin;
#X msg 7 6 destroy;
#X obj 144 30 gemhead;
#X obj 144 111 pix_video;
#X obj 101 234 pix_texture;
#X msg 200 76 device 0;
#X obj 89 331 rotateXYZ;
#X floatatom 261 302 5 0 0 0 - - -;
#X obj 171 330 translateXYZ;
#X obj 75 377 rectangle 4 3;
#X obj 144 138 pix_threshold;
#X floatatom 283 97 5 0 0 0 - - -;
#X obj 144 170 pix_blob;
#X floatatom 161 201 5 0 0 0 - - -;
#X floatatom 314 211 5 0 0 0 - - -;
#X obj 350 353 *~ 0.3;
#X obj 352 385 dac~;
#X obj 350 315 osc~ 300;
#X obj 176 377 cube 4 3;
#X obj 353 235 -1;
#X obj 332 265 * 600;
#X connect 0 0 1 0;
#X connect 1 0 0 0;
#X connect 2 0 3 0;
#X connect 3 0 10 0;
#X connect 4 0 6 0;
#X connect 5 0 3 0;
#X connect 6 0 9 0;
#X connect 7 0 6 1;
#X connect 7 0 8 1;
#X connect 8 0 18 0;
#X connect 10 0 12 0;
#X connect 11 0 10 1;
#X connect 12 0 4 0;
#X connect 12 1 13 0;
#X connect 12 2 14 0;
#X connect 14 0 19 0;
#X connect 15 0 16 0;
#X connect 15 0 16 1;
#X connect 17 0 15 0;
#X connect 19 0 20 0;
#X connect 20 0 17 0;
