#N canvas -9 -9 1920 976 12;
#N canvas 0 50 450 250 (subpatch) 0;
#X array Sample1 38912 float 2;
#X coords 0 1 38912 -1 200 140 1 0 0;
#X restore 620 119 graph;
#X obj 57 190 soundfiler;
#X floatatom 57 214 0 0 0 0 - - -;
#X obj 134 215 print;
#X text 297 29 read a file to zero or more arrays;
#X msg 54 29 read -resize aiai.wav Sample1;
#X obj 592 339 *~ 0.8;
#X obj 593 384 dac~ 1 2;
#X obj 592 293 bng 15 250 50 0 empty empty empty 17 7 0 10 -262144
-1 -1;
#X text 616 290 <--click to play;
#X obj 679 335 spigot;
#X obj 712 315 tgl 15 0 empty empty empty 17 7 0 10 -262144 -1 -1 0
1;
#X text 730 312 loop?;
#X obj 592 312 tabplay~ Sample1;
#X obj 566 267 r aiai;
#X msg 363 220 clear add aiai bang \, bang;
#X obj 363 240 qlist;
#X connect 1 0 2 0;
#X connect 1 1 3 0;
#X connect 5 0 1 0;
#X connect 6 0 7 0;
#X connect 6 0 7 1;
#X connect 8 0 13 0;
#X connect 10 0 8 0;
#X connect 11 0 10 1;
#X connect 13 0 6 0;
#X connect 13 1 10 0;
#X connect 14 0 8 0;
#X connect 15 0 16 0;
